<?xml version="1.0"?>
<svg xmlns:rdf="http://www.w3.org/1999/02/22-rdf-syntax-ns#" xmlns="http://www.w3.org/2000/svg" xmlns:cc="http://web.resource.org/cc/" xmlns:xlink="http://www.w3.org/1999/xlink" xmlns:dc="http://purl.org/dc/elements/1.1/" xmlns:svg="http://www.w3.org/2000/svg" id="svg1" height="400pt" width="400pt">
  <defs id="defs3">
    <linearGradient id="linearGradient2180">
      <stop id="stop2181" stop-color="#b0b0b0" offset="0"/>
      <stop id="stop2182" stop-color="#e8e8e9" offset="1"/>
    </linearGradient>
    <linearGradient id="linearGradient2183" y2=".14359" xlink:href="#linearGradient2180" y1=".93846" x2=".19231" x1="-.038462"/>
    <linearGradient id="linearGradient2185" y2=".28718" xlink:href="#linearGradient2180" y1=".90256" x2=".076923" x1="1"/>
    <linearGradient id="linearGradient2186" y2="1.0562" xlink:href="#linearGradient2180" y1="-.033708" x2=".46479" x1=".46479"/>
    <linearGradient id="linearGradient2188" y2=".014218" xlink:href="#linearGradient2180" y1="-.0030508" x2=".0024297" x1=".89263"/>
    <linearGradient id="linearGradient2190" y2=".43223" xlink:href="#linearGradient2180" y1=".33155" x2="1.1187" x1="-.036232"/>
    <linearGradient id="linearGradient2192" y2=".50435" xlink:href="#linearGradient2180" y1=".90435" x2=".017606" x1=".85915"/>
    <linearGradient id="linearGradient2194" y2=".4087" xlink:href="#linearGradient2180" y1=".76522" x2=".85211" x1=".09507"/>
    <linearGradient id="linearGradient2202" x2=".98" y1=".051282" x1=".14" y2=".96923">
      <stop id="stop2200" stop-color="#0163ff" stop-opacity=".10112" offset="0"/>
      <stop id="stop2201" stop-color="#fff" stop-opacity="0" offset="1"/>
    </linearGradient>
  </defs>
  <g id="g2841" transform="matrix(1.021 .79644 -.86356 .94162 258.18 -174.24)" fill-rule="evenodd">
    <path id="path913" stroke="#000" stroke-width=".78085pt" d="m185.21 64.144l11.22 284.07 54.17-1.06 10.76-289.48-39.05-55.831-37.1 62.305z"/>
    <path id="path1556" fill="url(#linearGradient2185)" d="m186.82 62.143l11.79 283.66h25.84l-1.13-341.41-36.5 57.753z"/>
    <path id="path2830" stroke="#000" stroke-width=".78085pt" d="m194.13 463.61l6.99 22.99 44.62-0.46 5.6-21.28-57.21-1.25z"/>
    <path id="path1553" fill="url(#linearGradient2186)" d="m195.21 465.05l7.25 18.91 41.26 0.52 7.26-18.91-55.77-0.52z"/>
    <path id="path2832" stroke="#000" stroke-width=".95992pt" d="m197.7 347.22l1.49 27.03-1.6 3-0.39 4.39 2.5 1.94 0.35 7.17-2.12 3.22 0.1 4.29 2.27 2.07 0.76 7.58h-0.03l-2.6 2.61 0.19 4.55 2.75 2-0.19 6.78-2.31 3.47-0.09 3.68 2.75 2 0.62 6.35-2.59 2.7-0.2 4.77 3.04 1.71 0.1-0.03 0.03 1.03 15.97 0.29-15.07 5.87-2.4 3.19v3.97l2.75 2 37.75-14.6 3.59 0.07 0.06-1.63 2.66-2.58-0.09-4.36-1.68-2.22-0.29-8.28 2.79-2.53-0.48-4.09-1.71-2.16-0.04-6.9 3.06-2.9 0.39-4.16-2.89-2.6 0.48-6.4 2.43-3.54v-3.77l-2.41-2.6 0.51-7.53 2.24-3.22v-3.97l-1.83-2.31-0.2-7.69 2.72-3.16v-3.97l-2.38-2.34 0.29-8.28-51.05 0.09z"/>
    <path id="path1545" fill="#303030" d="m198.84 346.6l3.62 103.2 42.62 0.8 3.63-103.2-49.87-0.8z"/>
    <path id="path2206" stroke="#000" stroke-width=".78085pt" fill="#000090" d="m200.29 383.5l47.76-18.31 2.75-3.18v-3.98l-2.4-2.39-48.45 18.71-2.41 3.18v3.98l2.75 1.99z"/>
    <path id="path2208" stroke="#000" stroke-width=".78085pt" fill="#000090" d="m203.73 465.11l41.23-15.92 2.75-3.19v-3.98l-2.41-2.39-41.92 16.33-2.4 3.18v3.98l2.75 1.99z"/>
    <path id="path1550" stroke="#000" stroke-width=".78085pt" d="m170.79 446.96l4.66 26.05 94.91-0.77 2.91-23.86-102.48-1.42z"/>
    <path id="path2207" stroke="#000" stroke-width=".78085pt" fill="#000090" d="m202.35 448.79l42.95-16.72 2.75-3.18v-3.98l-2.4-2.39-43.64 17.11-2.41 3.19v3.98l2.75 1.99z"/>
    <path id="path2203" stroke="#000" stroke-width=".78085pt" fill="#000090" d="m201.49 433.26l45.02-17.51 2.75-3.19v-3.98l-2.41-2.39-45.7 17.92-2.41 3.18v3.98l2.75 1.99z"/>
    <path id="path2204" stroke="#000" stroke-width=".78085pt" fill="#000090" d="m201.32 417.34l45.7-17.91 2.75-3.19v-3.98l-2.4-2.39-46.39 18.32-2.41 3.18v3.98l2.75 1.99z"/>
    <path id="path2205" stroke="#000" stroke-width=".78085pt" fill="#000090" d="m200.63 400.22l46.74-17.91 2.75-3.19v-3.98l-2.41-2.38-47.42 18.31-2.41 3.18v3.98l2.75 1.99z"/>
    <path id="path2193" fill="url(#linearGradient2194)" d="m272.52 449.03l-3.63 22.06-46.17 1.04-1.8-21.89 51.6-1.21z"/>
    <path id="path2184" fill="url(#linearGradient2183)" d="m260.27 62.143l-11.78 283.66h-25.85l1.13-341.41 36.5 57.753z"/>
    <path id="path2196" fill="url(#linearGradient2202)" d="m222.6 4.208l-36.5 57.781 11.79 283.65h49.87l11.79-283.65-36.5-57.782-0.23 68.287-0.22-68.287z"/>
    <path id="path1543" stroke="#000" stroke-width=".78085pt" d="m158.28 346.13l1.53 32.01 62.15-12.82 62.92 10.53 0.59-31.07-63.06 2.08-64.13-0.73z"/>
    <path id="path2189" fill="url(#linearGradient2190)" d="m284.53 346.86l-0.9 27.31-60.99-9.94-0.32-17.1 62.21-0.27z"/>
    <path id="path2187" fill="url(#linearGradient2188)" d="m160.07 347.65l0.91 27.31 62.08-10.71-0.42-17.13-62.57 0.53z"/>
    <path id="path2191" fill="url(#linearGradient2192)" d="m172.77 448.5l3.62 22.06 47.04 1.62-1.93-21.96-48.73-1.72z"/>
    <path id="path2195" d="m223 6.375l-1.56 339.62h3.75l-1.57-339.31-0.62-0.315z"/>
  </g>
  <metadata>
    <rdf:RDF>
      <cc:Work>
        <dc:format>image/svg+xml</dc:format>
        <dc:type rdf:resource="http://purl.org/dc/dcmitype/StillImage"/>
        <cc:license rdf:resource="http://creativecommons.org/licenses/publicdomain/"/>
        <dc:publisher>
          <cc:Agent rdf:about="http://openclipart.org/">
            <dc:title>Openclipart</dc:title>
          </cc:Agent>
        </dc:publisher>
        <dc:title>Toy Sword</dc:title>
        <dc:date>2009-03-17T13:47:03</dc:date>
        <dc:description>clip art, clipart, fantasy, fantasy, image, media, png, public domain, svg, sword, sword, toy, toy, weapon, weapon, </dc:description>
        <dc:source>http://openclipart.org/detail/22432/toy-sword-by-nicubunu</dc:source>
        <dc:creator>
          <cc:Agent>
            <dc:title>nicubunu</dc:title>
          </cc:Agent>
        </dc:creator>
        <dc:subject>
          <rdf:Bag>
            <rdf:li>clip art</rdf:li>
            <rdf:li>clipart</rdf:li>
            <rdf:li>fantasy</rdf:li>
            <rdf:li>image</rdf:li>
            <rdf:li>media</rdf:li>
            <rdf:li>png</rdf:li>
            <rdf:li>public domain</rdf:li>
            <rdf:li>svg</rdf:li>
            <rdf:li>sword</rdf:li>
            <rdf:li>toy</rdf:li>
            <rdf:li>weapon</rdf:li>
          </rdf:Bag>
        </dc:subject>
      </cc:Work>
      <cc:License rdf:about="http://creativecommons.org/licenses/publicdomain/">
        <cc:permits rdf:resource="http://creativecommons.org/ns#Reproduction"/>
        <cc:permits rdf:resource="http://creativecommons.org/ns#Distribution"/>
        <cc:permits rdf:resource="http://creativecommons.org/ns#DerivativeWorks"/>
      </cc:License>
    </rdf:RDF>
  </metadata>
</svg>
